<mxfile host="Electron" modified="2024-02-12T11:50:23.744Z" agent="Mozilla/5.0 (Windows NT 10.0; Win64; x64) AppleWebKit/537.36 (KHTML, like Gecko) draw.io/23.0.2 Chrome/120.0.6099.109 Electron/28.1.0 Safari/537.36" etag="HH1t02Z7xzfsztaGudM7" version="23.0.2" type="device" pages="4">
  <diagram name="Bachbett" id="m-OfHNLL-zCVHDTFKHLS">
    <mxGraphModel dx="979" dy="650" grid="1" gridSize="10" guides="1" tooltips="1" connect="1" arrows="1" fold="1" page="1" pageScale="1" pageWidth="850" pageHeight="1100" math="0" shadow="0">
      <root>
        <mxCell id="0" />
        <mxCell id="1" parent="0" />
        <mxCell id="6hawbJBqBnG290tPMfyX-3" value="" style="shape=trapezoid;perimeter=trapezoidPerimeter;whiteSpace=wrap;html=1;fixedSize=1;rotation=-180;size=32.91666666666663;fillColor=#dae8fc;strokeColor=#6c8ebf;" parent="1" vertex="1">
          <mxGeometry x="207" y="240" width="386" height="200" as="geometry" />
        </mxCell>
        <mxCell id="ac80TKpVc3N2NL96GDvA-1" value="" style="shape=trapezoid;perimeter=trapezoidPerimeter;whiteSpace=wrap;html=1;fixedSize=1;rotation=-180;size=32.91666666666663;fillColor=#A6C6FC;strokeColor=#6c8ebf;dashed=1;" parent="1" vertex="1">
          <mxGeometry x="242" y="240" width="318" height="160" as="geometry" />
        </mxCell>
        <mxCell id="ac80TKpVc3N2NL96GDvA-2" value="" style="shape=trapezoid;perimeter=trapezoidPerimeter;whiteSpace=wrap;html=1;fixedSize=1;rotation=-180;size=22;fillColor=#74A1FC;strokeColor=#6c8ebf;dashed=1;" parent="1" vertex="1">
          <mxGeometry x="279" y="260" width="242" height="100" as="geometry" />
        </mxCell>
        <mxCell id="ac80TKpVc3N2NL96GDvA-12" value="" style="shape=trapezoid;perimeter=trapezoidPerimeter;whiteSpace=wrap;html=1;fixedSize=1;rotation=-180;size=40;fillColor=none;" parent="1" vertex="1">
          <mxGeometry x="200" y="200" width="400" height="240" as="geometry" />
        </mxCell>
        <mxCell id="ac80TKpVc3N2NL96GDvA-13" value="&lt;font color=&quot;#0085fc&quot;&gt;Wasser fliesst schnell&lt;/font&gt;" style="text;html=1;strokeColor=none;fillColor=none;align=center;verticalAlign=middle;whiteSpace=wrap;rounded=0;" parent="1" vertex="1">
          <mxGeometry x="333.75" y="302.5" width="132.5" height="35" as="geometry" />
        </mxCell>
        <mxCell id="ac80TKpVc3N2NL96GDvA-14" value="&lt;font color=&quot;#0085fc&quot;&gt;Wasser fliesst langsam&lt;/font&gt;" style="text;html=1;strokeColor=none;fillColor=none;align=center;verticalAlign=middle;whiteSpace=wrap;rounded=0;" parent="1" vertex="1">
          <mxGeometry x="330" y="410" width="140" height="20" as="geometry" />
        </mxCell>
        <mxCell id="ac80TKpVc3N2NL96GDvA-15" value="" style="endArrow=classic;startArrow=classic;html=1;rounded=0;fillColor=#f8cecc;strokeColor=#b85450;" parent="1" edge="1">
          <mxGeometry width="50" height="50" relative="1" as="geometry">
            <mxPoint x="399.76" y="240" as="sourcePoint" />
            <mxPoint x="399.76" y="200" as="targetPoint" />
          </mxGeometry>
        </mxCell>
        <mxCell id="ac80TKpVc3N2NL96GDvA-16" value="&lt;font color=&quot;#b85450&quot;&gt;~ 290 mm&lt;/font&gt;" style="edgeLabel;html=1;align=center;verticalAlign=middle;resizable=0;points=[];" parent="ac80TKpVc3N2NL96GDvA-15" vertex="1" connectable="0">
          <mxGeometry x="-0.1" y="1" relative="1" as="geometry">
            <mxPoint x="-29" y="-2" as="offset" />
          </mxGeometry>
        </mxCell>
        <mxCell id="ac80TKpVc3N2NL96GDvA-17" value="&lt;font color=&quot;#b85450&quot;&gt;Welle&lt;/font&gt;" style="text;html=1;strokeColor=none;fillColor=none;align=center;verticalAlign=middle;whiteSpace=wrap;rounded=0;" parent="1" vertex="1">
          <mxGeometry x="640" y="220" width="40" height="20" as="geometry" />
        </mxCell>
        <mxCell id="ac80TKpVc3N2NL96GDvA-18" value="" style="rounded=0;whiteSpace=wrap;html=1;fillColor=#ffe6cc;strokeColor=#d79b00;" parent="1" vertex="1">
          <mxGeometry x="540" y="100" width="30" height="170" as="geometry" />
        </mxCell>
        <mxCell id="ac80TKpVc3N2NL96GDvA-19" value="" style="rounded=0;whiteSpace=wrap;html=1;fillColor=#ffe6cc;strokeColor=#d79b00;" parent="1" vertex="1">
          <mxGeometry x="570" y="180" width="70" height="10" as="geometry" />
        </mxCell>
        <mxCell id="ac80TKpVc3N2NL96GDvA-20" value="" style="rounded=0;whiteSpace=wrap;html=1;fillColor=#fff2cc;strokeColor=#d6b656;" parent="1" vertex="1">
          <mxGeometry x="540" y="180" width="30" height="10" as="geometry" />
        </mxCell>
        <mxCell id="ac80TKpVc3N2NL96GDvA-21" value="" style="rounded=0;whiteSpace=wrap;html=1;fillColor=#fff2cc;strokeColor=#d6b656;" parent="1" vertex="1">
          <mxGeometry x="540" y="140" width="30" height="20" as="geometry" />
        </mxCell>
        <mxCell id="ac80TKpVc3N2NL96GDvA-22" value="" style="rounded=0;whiteSpace=wrap;html=1;fillColor=#fff2cc;strokeColor=#d6b656;" parent="1" vertex="1">
          <mxGeometry x="540" y="100" width="30" height="30" as="geometry" />
        </mxCell>
        <mxCell id="ac80TKpVc3N2NL96GDvA-23" value="" style="rounded=0;whiteSpace=wrap;html=1;fillColor=#fff2cc;strokeColor=#d6b656;" parent="1" vertex="1">
          <mxGeometry x="540" y="210" width="30" height="20" as="geometry" />
        </mxCell>
        <mxCell id="ac80TKpVc3N2NL96GDvA-24" value="" style="rounded=0;whiteSpace=wrap;html=1;fillColor=#fff2cc;strokeColor=#d6b656;" parent="1" vertex="1">
          <mxGeometry x="540" y="240" width="30" height="30" as="geometry" />
        </mxCell>
        <mxCell id="ac80TKpVc3N2NL96GDvA-25" value="&lt;font color=&quot;#d79b00&quot;&gt;Wasserrad&lt;/font&gt;" style="text;html=1;strokeColor=none;fillColor=none;align=center;verticalAlign=middle;whiteSpace=wrap;rounded=0;" parent="1" vertex="1">
          <mxGeometry x="575" y="140" width="60" height="30" as="geometry" />
        </mxCell>
        <mxCell id="ac80TKpVc3N2NL96GDvA-26" value="" style="endArrow=classic;html=1;rounded=0;fontColor=#B85450;fillColor=#f8cecc;strokeColor=#b85450;entryX=1;entryY=1;entryDx=0;entryDy=0;exitX=0.5;exitY=0;exitDx=0;exitDy=0;" parent="1" edge="1" target="ac80TKpVc3N2NL96GDvA-19" source="ac80TKpVc3N2NL96GDvA-17">
          <mxGeometry width="50" height="50" relative="1" as="geometry">
            <mxPoint x="640" y="220" as="sourcePoint" />
            <mxPoint x="620" y="190" as="targetPoint" />
          </mxGeometry>
        </mxCell>
        <mxCell id="ac80TKpVc3N2NL96GDvA-27" value="&lt;font color=&quot;#0085fc&quot;&gt;Wasser fliesst mittelschnell&lt;/font&gt;" style="text;html=1;strokeColor=none;fillColor=none;align=center;verticalAlign=middle;whiteSpace=wrap;rounded=0;" parent="1" vertex="1">
          <mxGeometry x="311" y="370" width="180" height="20" as="geometry" />
        </mxCell>
        <mxCell id="ac80TKpVc3N2NL96GDvA-56" value="StrÃ¶mung in geradem Abschnitt" style="text;html=1;strokeColor=none;fillColor=none;align=center;verticalAlign=middle;whiteSpace=wrap;rounded=0;fontStyle=1" parent="1" vertex="1">
          <mxGeometry x="240" y="130" width="320" height="30" as="geometry" />
        </mxCell>
        <mxCell id="DLj9SqinWxsdbyFURFZm-1" value="" style="endArrow=none;html=1;rounded=0;entryX=1;entryY=1;entryDx=0;entryDy=0;strokeColor=#B85450;" parent="1" target="ac80TKpVc3N2NL96GDvA-12" edge="1">
          <mxGeometry width="50" height="50" relative="1" as="geometry">
            <mxPoint x="160" y="200" as="sourcePoint" />
            <mxPoint x="360" y="250" as="targetPoint" />
          </mxGeometry>
        </mxCell>
        <mxCell id="DLj9SqinWxsdbyFURFZm-2" value="" style="endArrow=none;html=1;rounded=0;entryX=0.901;entryY=-0.001;entryDx=0;entryDy=0;strokeColor=#B85450;entryPerimeter=0;" parent="1" target="ac80TKpVc3N2NL96GDvA-12" edge="1">
          <mxGeometry width="50" height="50" relative="1" as="geometry">
            <mxPoint x="160" y="440" as="sourcePoint" />
            <mxPoint x="210" y="210" as="targetPoint" />
          </mxGeometry>
        </mxCell>
        <mxCell id="DLj9SqinWxsdbyFURFZm-3" value="" style="endArrow=classic;startArrow=classic;html=1;rounded=0;strokeColor=#B85450;" parent="1" edge="1">
          <mxGeometry width="50" height="50" relative="1" as="geometry">
            <mxPoint x="170" y="440" as="sourcePoint" />
            <mxPoint x="170" y="200" as="targetPoint" />
          </mxGeometry>
        </mxCell>
        <mxCell id="DLj9SqinWxsdbyFURFZm-16" value="Text" style="edgeLabel;html=1;align=center;verticalAlign=middle;resizable=0;points=[];fontColor=#B85450;" parent="DLj9SqinWxsdbyFURFZm-3" vertex="1" connectable="0">
          <mxGeometry x="-0.021" y="1" relative="1" as="geometry">
            <mxPoint y="-2" as="offset" />
          </mxGeometry>
        </mxCell>
        <mxCell id="DLj9SqinWxsdbyFURFZm-17" value="1300 mm" style="edgeLabel;html=1;align=center;verticalAlign=middle;resizable=0;points=[];fontColor=#B85450;" parent="DLj9SqinWxsdbyFURFZm-3" vertex="1" connectable="0">
          <mxGeometry x="-0.0233" relative="1" as="geometry">
            <mxPoint y="-3" as="offset" />
          </mxGeometry>
        </mxCell>
        <mxCell id="DLj9SqinWxsdbyFURFZm-6" value="" style="endArrow=none;html=1;rounded=0;exitX=1;exitY=1;exitDx=0;exitDy=0;strokeColor=#B85450;" parent="1" edge="1">
          <mxGeometry width="50" height="50" relative="1" as="geometry">
            <mxPoint x="240" y="480" as="sourcePoint" />
            <mxPoint x="240" y="440" as="targetPoint" />
          </mxGeometry>
        </mxCell>
        <mxCell id="DLj9SqinWxsdbyFURFZm-8" value="" style="endArrow=none;html=1;rounded=0;strokeColor=#B85450;entryX=0.1;entryY=0;entryDx=0;entryDy=0;entryPerimeter=0;" parent="1" target="ac80TKpVc3N2NL96GDvA-12" edge="1">
          <mxGeometry width="50" height="50" relative="1" as="geometry">
            <mxPoint x="560" y="480" as="sourcePoint" />
            <mxPoint x="559.52" y="440" as="targetPoint" />
          </mxGeometry>
        </mxCell>
        <mxCell id="DLj9SqinWxsdbyFURFZm-9" value="" style="endArrow=classic;startArrow=classic;html=1;rounded=0;strokeColor=#B85450;" parent="1" edge="1">
          <mxGeometry width="50" height="50" relative="1" as="geometry">
            <mxPoint x="240" y="470" as="sourcePoint" />
            <mxPoint x="560" y="470" as="targetPoint" />
          </mxGeometry>
        </mxCell>
        <mxCell id="DLj9SqinWxsdbyFURFZm-12" value="3300 mm" style="edgeLabel;html=1;align=center;verticalAlign=middle;resizable=0;points=[];fontColor=#B85450;" parent="DLj9SqinWxsdbyFURFZm-9" vertex="1" connectable="0">
          <mxGeometry x="-0.1187" relative="1" as="geometry">
            <mxPoint y="-10" as="offset" />
          </mxGeometry>
        </mxCell>
        <mxCell id="DLj9SqinWxsdbyFURFZm-10" value="" style="endArrow=none;html=1;rounded=0;exitX=1;exitY=1;exitDx=0;exitDy=0;strokeColor=#B85450;" parent="1" edge="1">
          <mxGeometry width="50" height="50" relative="1" as="geometry">
            <mxPoint x="200" y="480" as="sourcePoint" />
            <mxPoint x="200" y="440" as="targetPoint" />
          </mxGeometry>
        </mxCell>
        <mxCell id="DLj9SqinWxsdbyFURFZm-11" value="" style="endArrow=classic;startArrow=classic;html=1;rounded=0;strokeColor=#B85450;" parent="1" edge="1">
          <mxGeometry width="50" height="50" relative="1" as="geometry">
            <mxPoint x="201" y="470" as="sourcePoint" />
            <mxPoint x="240" y="470" as="targetPoint" />
          </mxGeometry>
        </mxCell>
        <mxCell id="DLj9SqinWxsdbyFURFZm-13" value="100" style="edgeLabel;html=1;align=center;verticalAlign=middle;resizable=0;points=[];fontColor=#B85450;" parent="DLj9SqinWxsdbyFURFZm-11" vertex="1" connectable="0">
          <mxGeometry x="-0.1809" relative="1" as="geometry">
            <mxPoint x="3" y="-10" as="offset" />
          </mxGeometry>
        </mxCell>
        <mxCell id="PYR_AE9lpCaXFi2HNuno-1" value="" style="endArrow=none;dashed=1;html=1;rounded=0;entryX=1;entryY=1;entryDx=0;entryDy=0;strokeColor=#B85450;" parent="1" target="ac80TKpVc3N2NL96GDvA-12" edge="1">
          <mxGeometry width="50" height="50" relative="1" as="geometry">
            <mxPoint x="200" y="440" as="sourcePoint" />
            <mxPoint x="250" y="380" as="targetPoint" />
          </mxGeometry>
        </mxCell>
        <mxCell id="KTno-qFZZXyMrisBgdh3-1" value="&lt;font color=&quot;#b85450&quot;&gt;Oberkante Bachbett&lt;/font&gt;" style="text;html=1;strokeColor=none;fillColor=none;align=center;verticalAlign=middle;whiteSpace=wrap;rounded=0;" vertex="1" parent="1">
          <mxGeometry x="600" y="250" width="65" height="30" as="geometry" />
        </mxCell>
        <mxCell id="KTno-qFZZXyMrisBgdh3-2" value="" style="endArrow=classic;html=1;rounded=0;fontColor=#B85450;fillColor=#f8cecc;strokeColor=#b85450;entryX=0;entryY=1;entryDx=0;entryDy=0;exitX=0.5;exitY=0;exitDx=0;exitDy=0;" edge="1" parent="1" source="KTno-qFZZXyMrisBgdh3-1" target="ac80TKpVc3N2NL96GDvA-12">
          <mxGeometry width="50" height="50" relative="1" as="geometry">
            <mxPoint x="690" y="230" as="sourcePoint" />
            <mxPoint x="650" y="200" as="targetPoint" />
          </mxGeometry>
        </mxCell>
      </root>
    </mxGraphModel>
  </diagram>
  <diagram id="OFn0fjRia_yQA1GjNjPJ" name="Bachbett_in_Kurve">
    <mxGraphModel dx="1183" dy="686" grid="1" gridSize="10" guides="1" tooltips="1" connect="1" arrows="1" fold="1" page="1" pageScale="1" pageWidth="850" pageHeight="1100" math="0" shadow="0">
      <root>
        <mxCell id="0" />
        <mxCell id="1" parent="0" />
        <mxCell id="yOuOXENpEBNREAYj29T8-1" value="" style="shape=trapezoid;perimeter=trapezoidPerimeter;whiteSpace=wrap;html=1;fixedSize=1;rotation=-180;size=32.91666666666663;fillColor=#dae8fc;strokeColor=#6c8ebf;" vertex="1" parent="1">
          <mxGeometry x="247" y="560" width="386" height="200" as="geometry" />
        </mxCell>
        <mxCell id="yOuOXENpEBNREAYj29T8-2" value="" style="shape=trapezoid;perimeter=trapezoidPerimeter;whiteSpace=wrap;html=1;fixedSize=1;rotation=-180;size=28;fillColor=#A6C6FC;strokeColor=#6c8ebf;dashed=1;" vertex="1" parent="1">
          <mxGeometry x="260" y="560" width="298" height="160" as="geometry" />
        </mxCell>
        <mxCell id="yOuOXENpEBNREAYj29T8-3" value="" style="shape=trapezoid;perimeter=trapezoidPerimeter;whiteSpace=wrap;html=1;fixedSize=1;rotation=-180;size=20;fillColor=#74A1FC;strokeColor=#6c8ebf;dashed=1;flipH=0;flipV=0;direction=east;" vertex="1" parent="1">
          <mxGeometry x="280" y="580" width="190" height="100" as="geometry" />
        </mxCell>
        <mxCell id="yOuOXENpEBNREAYj29T8-4" value="" style="shape=trapezoid;perimeter=trapezoidPerimeter;whiteSpace=wrap;html=1;fixedSize=1;rotation=-180;size=40;fillColor=none;" vertex="1" parent="1">
          <mxGeometry x="240" y="520" width="400" height="240" as="geometry" />
        </mxCell>
        <mxCell id="yOuOXENpEBNREAYj29T8-5" value="&lt;font color=&quot;#0085fc&quot;&gt;Wasser fliesst schnell&lt;/font&gt;" style="text;html=1;strokeColor=none;fillColor=none;align=center;verticalAlign=middle;whiteSpace=wrap;rounded=0;" vertex="1" parent="1">
          <mxGeometry x="311.25" y="622.5" width="127.5" height="35" as="geometry" />
        </mxCell>
        <mxCell id="yOuOXENpEBNREAYj29T8-6" value="&lt;font color=&quot;#0085fc&quot;&gt;Wasser fliesst langsam&lt;/font&gt;" style="text;html=1;strokeColor=none;fillColor=none;align=center;verticalAlign=middle;whiteSpace=wrap;rounded=0;" vertex="1" parent="1">
          <mxGeometry x="370" y="730" width="140" height="20" as="geometry" />
        </mxCell>
        <mxCell id="yOuOXENpEBNREAYj29T8-7" value="&lt;font color=&quot;#0085fc&quot;&gt;Wasser fliesst mittelschnell&lt;/font&gt;" style="text;html=1;strokeColor=none;fillColor=none;align=center;verticalAlign=middle;whiteSpace=wrap;rounded=0;" vertex="1" parent="1">
          <mxGeometry x="319" y="690" width="180" height="20" as="geometry" />
        </mxCell>
        <mxCell id="yOuOXENpEBNREAYj29T8-8" value="&lt;font color=&quot;#b85450&quot;&gt;KurvenÃ¤usseres Ufer&lt;br&gt;(Prallhang)&lt;br&gt;&lt;/font&gt;" style="text;html=1;strokeColor=none;fillColor=none;align=left;verticalAlign=middle;whiteSpace=wrap;rounded=0;" vertex="1" parent="1">
          <mxGeometry x="240" y="490" width="160" height="30" as="geometry" />
        </mxCell>
        <mxCell id="yOuOXENpEBNREAYj29T8-9" value="&lt;font color=&quot;#b85450&quot;&gt;Kurveninneres Ufer&lt;br&gt;(Gleithang)&lt;br&gt;&lt;/font&gt;" style="text;html=1;strokeColor=none;fillColor=none;align=right;verticalAlign=middle;whiteSpace=wrap;rounded=0;" vertex="1" parent="1">
          <mxGeometry x="480" y="490" width="160" height="30" as="geometry" />
        </mxCell>
        <mxCell id="yOuOXENpEBNREAYj29T8-10" value="" style="verticalLabelPosition=bottom;verticalAlign=top;html=1;shape=mxgraph.basic.obtuse_triangle;dx=0.09;fillColor=#ffcc99;strokeColor=none;flipH=1;" vertex="1" parent="1">
          <mxGeometry x="534" y="720.5" width="72" height="39" as="geometry" />
        </mxCell>
        <mxCell id="yOuOXENpEBNREAYj29T8-11" value="&lt;font color=&quot;#b85450&quot;&gt;Sedimentation (Ablagerung von GerÃ¶ll und Dreck)&lt;/font&gt;" style="text;html=1;strokeColor=none;fillColor=none;align=center;verticalAlign=middle;whiteSpace=wrap;rounded=0;" vertex="1" parent="1">
          <mxGeometry x="640" y="710" width="150" height="43" as="geometry" />
        </mxCell>
        <mxCell id="yOuOXENpEBNREAYj29T8-12" value="" style="endArrow=classic;html=1;rounded=0;fontColor=#B85450;fillColor=#f8cecc;strokeColor=#b85450;exitX=0;exitY=0.5;exitDx=0;exitDy=0;entryX=0;entryY=0;entryDx=3.2399999999999998;entryDy=19.5;entryPerimeter=0;" edge="1" parent="1" source="yOuOXENpEBNREAYj29T8-11" target="yOuOXENpEBNREAYj29T8-10">
          <mxGeometry width="50" height="50" relative="1" as="geometry">
            <mxPoint x="303" y="772" as="sourcePoint" />
            <mxPoint x="283" y="742" as="targetPoint" />
          </mxGeometry>
        </mxCell>
        <mxCell id="yOuOXENpEBNREAYj29T8-13" value="&lt;b&gt;StrÃ¶mung in Rechtskurve&lt;/b&gt;" style="text;html=1;strokeColor=none;fillColor=none;align=center;verticalAlign=middle;whiteSpace=wrap;rounded=0;" vertex="1" parent="1">
          <mxGeometry x="280" y="450" width="320" height="30" as="geometry" />
        </mxCell>
      </root>
    </mxGraphModel>
  </diagram>
  <diagram id="MZgC3NRrMMbwhSde6dxn" name="Umlaufgeschwindigkeit">
    <mxGraphModel dx="947" dy="549" grid="1" gridSize="10" guides="1" tooltips="1" connect="1" arrows="1" fold="1" page="1" pageScale="1" pageWidth="850" pageHeight="1100" math="0" shadow="0">
      <root>
        <mxCell id="0" />
        <mxCell id="1" parent="0" />
        <mxCell id="LOwHUlPc1KMX-Vt5bCSk-6" value="" style="endArrow=none;html=1;rounded=0;exitX=0;exitY=0;exitDx=0;exitDy=0;fillColor=#ffe6cc;strokeColor=#d79b00;" edge="1" parent="1">
          <mxGeometry width="50" height="50" relative="1" as="geometry">
            <mxPoint x="490" y="300" as="sourcePoint" />
            <mxPoint x="490" y="300" as="targetPoint" />
            <Array as="points">
              <mxPoint x="515" y="290" />
              <mxPoint x="540" y="300" />
              <mxPoint x="550" y="325" />
              <mxPoint x="540" y="350" />
              <mxPoint x="515" y="360" />
              <mxPoint x="490" y="350" />
              <mxPoint x="480" y="325" />
            </Array>
          </mxGeometry>
        </mxCell>
        <mxCell id="HWefJCLG5-1cpfpYz9Ct-8" value="" style="rounded=0;whiteSpace=wrap;html=1;fillColor=#ffe6cc;strokeColor=#d79b00;" parent="1" vertex="1">
          <mxGeometry x="510" y="240" width="10" height="170" as="geometry" />
        </mxCell>
        <mxCell id="HWefJCLG5-1cpfpYz9Ct-9" value="" style="rounded=0;whiteSpace=wrap;html=1;fillColor=#ffe6cc;strokeColor=#d79b00;rotation=90;" parent="1" vertex="1">
          <mxGeometry x="510" y="240" width="10" height="170" as="geometry" />
        </mxCell>
        <mxCell id="HWefJCLG5-1cpfpYz9Ct-10" value="" style="rounded=0;whiteSpace=wrap;html=1;fillColor=#ffe6cc;strokeColor=#d79b00;rotation=135;" parent="1" vertex="1">
          <mxGeometry x="510" y="240" width="10" height="170" as="geometry" />
        </mxCell>
        <mxCell id="HWefJCLG5-1cpfpYz9Ct-11" value="" style="rounded=0;whiteSpace=wrap;html=1;fillColor=#ffe6cc;strokeColor=#d79b00;rotation=-135;" parent="1" vertex="1">
          <mxGeometry x="510" y="240" width="10" height="170" as="geometry" />
        </mxCell>
        <mxCell id="HWefJCLG5-1cpfpYz9Ct-12" value="" style="ellipse;whiteSpace=wrap;html=1;aspect=fixed;fillColor=none;strokeColor=#d79b00;dashed=1;" parent="1" vertex="1">
          <mxGeometry x="430" y="240" width="170" height="170" as="geometry" />
        </mxCell>
        <mxCell id="DTgYn_3rOSKha0L_9s1B-1" value="" style="verticalLabelPosition=bottom;verticalAlign=top;html=1;shape=mxgraph.basic.arc;startAngle=0.25;endAngle=0.5;fillColor=#ffe6cc;strokeColor=#d79b00;strokeWidth=6;" vertex="1" parent="1">
          <mxGeometry x="420" y="230" width="190" height="190" as="geometry" />
        </mxCell>
        <mxCell id="DTgYn_3rOSKha0L_9s1B-2" value="" style="endArrow=none;html=1;rounded=0;fillColor=#ffe6cc;strokeColor=#d79b00;strokeWidth=6;" edge="1" parent="1">
          <mxGeometry width="50" height="50" relative="1" as="geometry">
            <mxPoint x="399.62" y="420" as="sourcePoint" />
            <mxPoint x="515" y="420" as="targetPoint" />
          </mxGeometry>
        </mxCell>
        <mxCell id="1TPLds_paw3Er-1AUGEK-1" value="" style="endArrow=classic;html=1;rounded=0;fillColor=#ffe6cc;strokeColor=#d79b00;strokeWidth=6;" edge="1" parent="1">
          <mxGeometry width="50" height="50" relative="1" as="geometry">
            <mxPoint x="610" y="325.1400000000001" as="sourcePoint" />
            <mxPoint x="610" y="255.0000000000001" as="targetPoint" />
          </mxGeometry>
        </mxCell>
        <mxCell id="HWefJCLG5-1cpfpYz9Ct-14" value="&lt;font color=&quot;#d79b00&quot;&gt;Umlaufgeschwindigkeit Wasserrad&lt;/font&gt;" style="shape=step;perimeter=stepPerimeter;whiteSpace=wrap;html=1;fixedSize=1;fillColor=#ffe6cc;strokeColor=#d79b00;align=center;rotation=0;verticalAlign=middle;horizontal=1;" parent="1" vertex="1">
          <mxGeometry x="270" y="410" width="250" height="20" as="geometry" />
        </mxCell>
        <mxCell id="Zkf1mARq7XZEVchlOasS-1" value="" style="endArrow=classic;html=1;rounded=0;fillColor=#dae8fc;strokeColor=#6c8ebf;strokeWidth=6;" edge="1" parent="1">
          <mxGeometry width="50" height="50" relative="1" as="geometry">
            <mxPoint x="500" y="440" as="sourcePoint" />
            <mxPoint x="740" y="440" as="targetPoint" />
          </mxGeometry>
        </mxCell>
        <mxCell id="lLqxFrElG1tWhZBZXCGZ-7" value="&lt;font color=&quot;#0085fc&quot;&gt;Fliessgeschwindigkeit Wasser&lt;/font&gt;" style="shape=step;perimeter=stepPerimeter;whiteSpace=wrap;html=1;fixedSize=1;fillColor=#dae8fc;strokeColor=#6c8ebf;align=center;" parent="1" vertex="1">
          <mxGeometry x="270" y="430" width="250" height="20" as="geometry" />
        </mxCell>
      </root>
    </mxGraphModel>
  </diagram>
  <diagram id="KnDh7wtpGC1xg3dj91b5" name="Unter-vs-Oberschlaechtig">
    <mxGraphModel dx="1418" dy="329" grid="1" gridSize="10" guides="1" tooltips="1" connect="1" arrows="1" fold="1" page="1" pageScale="1" pageWidth="850" pageHeight="1100" math="0" shadow="0">
      <root>
        <mxCell id="0" />
        <mxCell id="1" parent="0" />
        <mxCell id="IV0l1ls7vGkZKeb2dTsf-8" value="OberschlÃ¤chtiges Wasserrad" style="text;html=1;strokeColor=none;fillColor=none;align=center;verticalAlign=middle;whiteSpace=wrap;rounded=0;" parent="1" vertex="1">
          <mxGeometry x="-560" y="160" width="120" height="30" as="geometry" />
        </mxCell>
        <mxCell id="IV0l1ls7vGkZKeb2dTsf-9" value="MittelschlÃ¤chtiges Wasserrad" style="text;html=1;strokeColor=none;fillColor=none;align=center;verticalAlign=middle;whiteSpace=wrap;rounded=0;" parent="1" vertex="1">
          <mxGeometry x="-720" y="160" width="120" height="30" as="geometry" />
        </mxCell>
        <mxCell id="mf_7vovnpW2sgSgyKVlC-11" value="" style="group" parent="1" vertex="1" connectable="0">
          <mxGeometry x="-720" y="20" width="120" height="120" as="geometry" />
        </mxCell>
        <mxCell id="mf_7vovnpW2sgSgyKVlC-5" value="" style="ellipse;whiteSpace=wrap;html=1;aspect=fixed;fillColor=#ffe6cc;strokeColor=#d79b00;" parent="mf_7vovnpW2sgSgyKVlC-11" vertex="1">
          <mxGeometry width="120" height="120" as="geometry" />
        </mxCell>
        <mxCell id="mf_7vovnpW2sgSgyKVlC-6" value="" style="ellipse;whiteSpace=wrap;html=1;aspect=fixed;fillColor=default;strokeColor=#d79b00;" parent="mf_7vovnpW2sgSgyKVlC-11" vertex="1">
          <mxGeometry x="20" y="20" width="80" height="80" as="geometry" />
        </mxCell>
        <mxCell id="mf_7vovnpW2sgSgyKVlC-7" value="" style="endArrow=none;html=1;rounded=0;entryX=1;entryY=0.5;entryDx=0;entryDy=0;exitX=0;exitY=0.5;exitDx=0;exitDy=0;fillColor=#ffe6cc;strokeColor=#d79b00;" parent="mf_7vovnpW2sgSgyKVlC-11" source="mf_7vovnpW2sgSgyKVlC-5" target="mf_7vovnpW2sgSgyKVlC-5" edge="1">
          <mxGeometry width="50" height="50" relative="1" as="geometry">
            <mxPoint x="50" y="170" as="sourcePoint" />
            <mxPoint x="100" y="120" as="targetPoint" />
          </mxGeometry>
        </mxCell>
        <mxCell id="mf_7vovnpW2sgSgyKVlC-8" value="" style="endArrow=none;html=1;rounded=0;entryX=0.5;entryY=0;entryDx=0;entryDy=0;exitX=0.5;exitY=1;exitDx=0;exitDy=0;fillColor=#ffe6cc;strokeColor=#d79b00;" parent="mf_7vovnpW2sgSgyKVlC-11" source="mf_7vovnpW2sgSgyKVlC-5" target="mf_7vovnpW2sgSgyKVlC-5" edge="1">
          <mxGeometry width="50" height="50" relative="1" as="geometry">
            <mxPoint x="10" y="70" as="sourcePoint" />
            <mxPoint x="130" y="70" as="targetPoint" />
          </mxGeometry>
        </mxCell>
        <mxCell id="mf_7vovnpW2sgSgyKVlC-9" value="" style="endArrow=none;html=1;rounded=0;entryX=0;entryY=0;entryDx=0;entryDy=0;exitX=1;exitY=1;exitDx=0;exitDy=0;fillColor=#ffe6cc;strokeColor=#d79b00;" parent="mf_7vovnpW2sgSgyKVlC-11" source="mf_7vovnpW2sgSgyKVlC-5" target="mf_7vovnpW2sgSgyKVlC-5" edge="1">
          <mxGeometry width="50" height="50" relative="1" as="geometry">
            <mxPoint x="70" y="130" as="sourcePoint" />
            <mxPoint x="70" y="10" as="targetPoint" />
          </mxGeometry>
        </mxCell>
        <mxCell id="mf_7vovnpW2sgSgyKVlC-10" value="" style="endArrow=none;html=1;rounded=0;entryX=1;entryY=0;entryDx=0;entryDy=0;exitX=0;exitY=1;exitDx=0;exitDy=0;fillColor=#ffe6cc;strokeColor=#d79b00;" parent="mf_7vovnpW2sgSgyKVlC-11" source="mf_7vovnpW2sgSgyKVlC-5" target="mf_7vovnpW2sgSgyKVlC-5" edge="1">
          <mxGeometry width="50" height="50" relative="1" as="geometry">
            <mxPoint x="164" y="112" as="sourcePoint" />
            <mxPoint x="80" y="28" as="targetPoint" />
          </mxGeometry>
        </mxCell>
        <mxCell id="mf_7vovnpW2sgSgyKVlC-4" value="" style="verticalLabelPosition=bottom;verticalAlign=top;html=1;shape=mxgraph.basic.arc;startAngle=0.5;endAngle=0.7516075710155771;fillColor=#dae8fc;strokeColor=#6c8ebf;strokeWidth=6;" parent="mf_7vovnpW2sgSgyKVlC-11" vertex="1">
          <mxGeometry x="10" y="10" width="100" height="100" as="geometry" />
        </mxCell>
        <mxCell id="mf_7vovnpW2sgSgyKVlC-39" value="" style="endArrow=classic;html=1;rounded=0;fillColor=#dae8fc;strokeColor=#6c8ebf;strokeWidth=6;" parent="mf_7vovnpW2sgSgyKVlC-11" edge="1">
          <mxGeometry width="50" height="50" relative="1" as="geometry">
            <mxPoint x="60" y="110" as="sourcePoint" />
            <mxPoint x="130" y="110" as="targetPoint" />
          </mxGeometry>
        </mxCell>
        <mxCell id="mf_7vovnpW2sgSgyKVlC-19" value="" style="group" parent="1" vertex="1" connectable="0">
          <mxGeometry x="-400" y="20" width="190" height="160" as="geometry" />
        </mxCell>
        <mxCell id="mf_7vovnpW2sgSgyKVlC-20" value="" style="ellipse;whiteSpace=wrap;html=1;aspect=fixed;fillColor=#ffe6cc;strokeColor=#d79b00;" parent="mf_7vovnpW2sgSgyKVlC-19" vertex="1">
          <mxGeometry width="120" height="120" as="geometry" />
        </mxCell>
        <mxCell id="mf_7vovnpW2sgSgyKVlC-21" value="" style="ellipse;whiteSpace=wrap;html=1;aspect=fixed;fillColor=default;strokeColor=#d79b00;" parent="mf_7vovnpW2sgSgyKVlC-19" vertex="1">
          <mxGeometry x="20" y="20" width="80" height="80" as="geometry" />
        </mxCell>
        <mxCell id="mf_7vovnpW2sgSgyKVlC-22" value="" style="endArrow=none;html=1;rounded=0;entryX=1;entryY=0.5;entryDx=0;entryDy=0;exitX=0;exitY=0.5;exitDx=0;exitDy=0;fillColor=#ffe6cc;strokeColor=#d79b00;" parent="mf_7vovnpW2sgSgyKVlC-19" source="mf_7vovnpW2sgSgyKVlC-20" target="mf_7vovnpW2sgSgyKVlC-20" edge="1">
          <mxGeometry width="50" height="50" relative="1" as="geometry">
            <mxPoint x="50" y="170" as="sourcePoint" />
            <mxPoint x="100" y="120" as="targetPoint" />
          </mxGeometry>
        </mxCell>
        <mxCell id="mf_7vovnpW2sgSgyKVlC-23" value="" style="endArrow=none;html=1;rounded=0;entryX=0.5;entryY=0;entryDx=0;entryDy=0;exitX=0.5;exitY=1;exitDx=0;exitDy=0;fillColor=#ffe6cc;strokeColor=#d79b00;" parent="mf_7vovnpW2sgSgyKVlC-19" source="mf_7vovnpW2sgSgyKVlC-20" target="mf_7vovnpW2sgSgyKVlC-20" edge="1">
          <mxGeometry width="50" height="50" relative="1" as="geometry">
            <mxPoint x="10" y="70" as="sourcePoint" />
            <mxPoint x="130" y="70" as="targetPoint" />
          </mxGeometry>
        </mxCell>
        <mxCell id="mf_7vovnpW2sgSgyKVlC-24" value="" style="endArrow=none;html=1;rounded=0;entryX=0;entryY=0;entryDx=0;entryDy=0;exitX=1;exitY=1;exitDx=0;exitDy=0;fillColor=#ffe6cc;strokeColor=#d79b00;" parent="mf_7vovnpW2sgSgyKVlC-19" source="mf_7vovnpW2sgSgyKVlC-20" target="mf_7vovnpW2sgSgyKVlC-20" edge="1">
          <mxGeometry width="50" height="50" relative="1" as="geometry">
            <mxPoint x="70" y="130" as="sourcePoint" />
            <mxPoint x="70" y="10" as="targetPoint" />
          </mxGeometry>
        </mxCell>
        <mxCell id="mf_7vovnpW2sgSgyKVlC-25" value="" style="endArrow=none;html=1;rounded=0;entryX=1;entryY=0;entryDx=0;entryDy=0;exitX=0;exitY=1;exitDx=0;exitDy=0;fillColor=#ffe6cc;strokeColor=#d79b00;" parent="mf_7vovnpW2sgSgyKVlC-19" source="mf_7vovnpW2sgSgyKVlC-20" target="mf_7vovnpW2sgSgyKVlC-20" edge="1">
          <mxGeometry width="50" height="50" relative="1" as="geometry">
            <mxPoint x="164" y="112" as="sourcePoint" />
            <mxPoint x="80" y="28" as="targetPoint" />
          </mxGeometry>
        </mxCell>
        <mxCell id="mf_7vovnpW2sgSgyKVlC-40" value="" style="endArrow=classic;html=1;rounded=0;fillColor=#dae8fc;strokeColor=#6c8ebf;strokeWidth=6;" parent="mf_7vovnpW2sgSgyKVlC-19" edge="1">
          <mxGeometry width="50" height="50" relative="1" as="geometry">
            <mxPoint x="-10" y="110" as="sourcePoint" />
            <mxPoint x="130" y="110" as="targetPoint" />
          </mxGeometry>
        </mxCell>
        <mxCell id="IV0l1ls7vGkZKeb2dTsf-10" value="UnterschlÃ¤chtiges Wasserrad" style="text;html=1;strokeColor=none;fillColor=none;align=center;verticalAlign=middle;whiteSpace=wrap;rounded=0;" parent="mf_7vovnpW2sgSgyKVlC-19" vertex="1">
          <mxGeometry y="140" width="120" height="30" as="geometry" />
        </mxCell>
        <mxCell id="mf_7vovnpW2sgSgyKVlC-38" value="" style="endArrow=none;html=1;rounded=0;fillColor=#dae8fc;strokeColor=#6c8ebf;strokeWidth=6;" parent="1" edge="1">
          <mxGeometry width="50" height="50" relative="1" as="geometry">
            <mxPoint x="-730" y="80" as="sourcePoint" />
            <mxPoint x="-707" y="79.83" as="targetPoint" />
          </mxGeometry>
        </mxCell>
        <mxCell id="mf_7vovnpW2sgSgyKVlC-13" value="" style="ellipse;whiteSpace=wrap;html=1;aspect=fixed;fillColor=#ffe6cc;strokeColor=#d79b00;" parent="1" vertex="1">
          <mxGeometry x="-560" y="20" width="120" height="120" as="geometry" />
        </mxCell>
        <mxCell id="mf_7vovnpW2sgSgyKVlC-14" value="" style="ellipse;whiteSpace=wrap;html=1;aspect=fixed;fillColor=default;strokeColor=#d79b00;" parent="1" vertex="1">
          <mxGeometry x="-540" y="40" width="80" height="80" as="geometry" />
        </mxCell>
        <mxCell id="mf_7vovnpW2sgSgyKVlC-15" value="" style="endArrow=none;html=1;rounded=0;entryX=1;entryY=0.5;entryDx=0;entryDy=0;exitX=0;exitY=0.5;exitDx=0;exitDy=0;fillColor=#ffe6cc;strokeColor=#d79b00;" parent="1" source="mf_7vovnpW2sgSgyKVlC-13" target="mf_7vovnpW2sgSgyKVlC-13" edge="1">
          <mxGeometry width="50" height="50" relative="1" as="geometry">
            <mxPoint x="-510" y="190" as="sourcePoint" />
            <mxPoint x="-460" y="140" as="targetPoint" />
          </mxGeometry>
        </mxCell>
        <mxCell id="mf_7vovnpW2sgSgyKVlC-16" value="" style="endArrow=none;html=1;rounded=0;entryX=0.5;entryY=0;entryDx=0;entryDy=0;exitX=0.5;exitY=1;exitDx=0;exitDy=0;fillColor=#ffe6cc;strokeColor=#d79b00;" parent="1" source="mf_7vovnpW2sgSgyKVlC-13" target="mf_7vovnpW2sgSgyKVlC-13" edge="1">
          <mxGeometry width="50" height="50" relative="1" as="geometry">
            <mxPoint x="-550" y="90" as="sourcePoint" />
            <mxPoint x="-430" y="90" as="targetPoint" />
          </mxGeometry>
        </mxCell>
        <mxCell id="mf_7vovnpW2sgSgyKVlC-17" value="" style="endArrow=none;html=1;rounded=0;entryX=0;entryY=0;entryDx=0;entryDy=0;exitX=1;exitY=1;exitDx=0;exitDy=0;fillColor=#ffe6cc;strokeColor=#d79b00;" parent="1" source="mf_7vovnpW2sgSgyKVlC-13" target="mf_7vovnpW2sgSgyKVlC-13" edge="1">
          <mxGeometry width="50" height="50" relative="1" as="geometry">
            <mxPoint x="-490" y="150" as="sourcePoint" />
            <mxPoint x="-490" y="30" as="targetPoint" />
          </mxGeometry>
        </mxCell>
        <mxCell id="mf_7vovnpW2sgSgyKVlC-18" value="" style="endArrow=none;html=1;rounded=0;entryX=1;entryY=0;entryDx=0;entryDy=0;exitX=0;exitY=1;exitDx=0;exitDy=0;fillColor=#ffe6cc;strokeColor=#d79b00;" parent="1" source="mf_7vovnpW2sgSgyKVlC-13" target="mf_7vovnpW2sgSgyKVlC-13" edge="1">
          <mxGeometry width="50" height="50" relative="1" as="geometry">
            <mxPoint x="-396" y="132" as="sourcePoint" />
            <mxPoint x="-480" y="48" as="targetPoint" />
          </mxGeometry>
        </mxCell>
        <mxCell id="mf_7vovnpW2sgSgyKVlC-26" value="" style="verticalLabelPosition=bottom;verticalAlign=top;html=1;shape=mxgraph.basic.arc;startAngle=0;endAngle=0.25;fillColor=#dae8fc;strokeColor=#6c8ebf;strokeWidth=6;" parent="1" vertex="1">
          <mxGeometry x="-550" y="30" width="100" height="100" as="geometry" />
        </mxCell>
        <mxCell id="mf_7vovnpW2sgSgyKVlC-37" value="" style="endArrow=none;html=1;rounded=0;fillColor=#dae8fc;strokeColor=#6c8ebf;strokeWidth=6;" parent="1" edge="1">
          <mxGeometry width="50" height="50" relative="1" as="geometry">
            <mxPoint x="-570" y="30" as="sourcePoint" />
            <mxPoint x="-500" y="30" as="targetPoint" />
          </mxGeometry>
        </mxCell>
        <mxCell id="mf_7vovnpW2sgSgyKVlC-41" value="" style="endArrow=classic;html=1;rounded=0;fillColor=#dae8fc;strokeColor=#6c8ebf;strokeWidth=6;" parent="1" edge="1">
          <mxGeometry width="50" height="50" relative="1" as="geometry">
            <mxPoint x="-450" y="79.86" as="sourcePoint" />
            <mxPoint x="-450" y="150" as="targetPoint" />
          </mxGeometry>
        </mxCell>
      </root>
    </mxGraphModel>
  </diagram>
</mxfile>
